<?xml version="1.0" encoding="UTF-8"?>
<svg id="Layer_1" data-name="Layer 1" xmlns="http://www.w3.org/2000/svg" viewBox="0 0 1080 273.63">
  <defs>
    <style>
      .cls-1 {
        fill: #304151;
      }

      .cls-2 {
        fill: #13d183;
      }

      .cls-3 {
        fill: #0086ff;
      }
    </style>
  </defs>
  <g>
    <path class="cls-1" d="M422.96,212.5c-.81,0-1.62-.81-1.62-1.62l.81-69.94-.81-68.32c0-.81.81-1.62,1.62-1.62h47.5c40.63,0,73.17,23.04,73.17,71.35s-33.96,70.14-72.77,70.14h-47.91ZM446.6,193.09h25.87c23.85,0,45.68-14.76,45.68-50.94s-20.62-51.75-46.49-51.75h-25.06c0,.2-.61,31.33-.61,49.93s.61,52.55.61,52.76Z"/>
    <path class="cls-1" d="M554.74,97.68c-.81,0-1.62-.81-1.62-1.62v-20.82c0-.81.81-1.62,1.62-1.62h21.43c.81,0,1.62.81,1.62,1.62v20.82c0,.81-.81,1.62-1.62,1.62h-21.43ZM554.74,212.5c-.81,0-1.62-.81-1.62-1.62l.4-51.14-.4-49.72c0-.81.81-1.62,1.62-1.62h21.63c.81,0,1.62.81,1.62,1.62l-.61,49.72.61,51.14c0,.81-.81,1.62-1.62,1.62h-21.63Z"/>
    <path class="cls-1" d="M638.02,214.92c-32.34,0-50.94-21.22-50.94-54.17s18.6-54.78,51.34-54.78c26.28,0,42.85,14.96,45.08,37.4.2.81-.61,1.62-1.42,1.62h-19.2c-.81,0-1.62-.61-1.82-1.62-2.43-13.34-11.12-20.01-22.64-20.01-17.99,0-26.48,12.94-26.48,37.19s8.69,36.99,26.48,37.19c13.14.2,22.23-8.29,23.45-23.25.2-1.01,1.01-1.62,1.82-1.62h19.81c.81,0,1.62.81,1.41,1.62-2.02,23.45-19.81,40.43-46.89,40.43Z"/>
    <path class="cls-1" d="M738.07,214.92c-29.31,0-47.7-12.33-48.51-36.18,0-.81.81-1.62,1.62-1.62h20.42c.81,0,1.62.81,1.62,1.62.61,13.75,9.5,20.01,25.87,20.01,13.75,0,22.03-5.46,22.03-15.16,0-23.04-69.13-2.63-69.13-45.48,0-21.02,16.78-32.14,43.26-32.14s43.86,10.71,45.48,32.54c0,.81-.81,1.62-1.62,1.62h-19.4c-.81,0-1.62-.61-1.82-1.62-1.62-10.71-9.3-16.78-23.04-16.78-11.93,0-19.61,4.45-19.61,14.55,0,22.44,69.13,1.21,69.13,45.28,0,21.22-19.81,33.35-46.29,33.35Z"/>
    <path class="cls-1" d="M867.03,212.5c-.81,0-1.62-.81-1.62-1.62l.4-12.73c-7.07,10.31-17.99,16.37-31.94,16.37-28.91,0-44.06-23.45-44.06-53.77s16.57-54.37,44.47-54.37c13.75,0,24.46,5.26,31.53,15.36l-.61-11.72c0-.81.81-1.62,1.62-1.62h21.43c.81,0,1.62.81,1.62,1.62l-.61,50.13.61,50.74c0,.81-.81,1.62-1.62,1.62h-21.22ZM840.35,197.34c16.37,0,25.87-12.13,26.08-36.18s-9.1-37.39-25.47-37.6c-17.79-.2-26.48,13.34-26.48,35.58,0,24.26,8.89,38.2,25.87,38.2Z"/>
  </g>
  <path class="cls-3" d="M297.8,223.49h-81.01v-108.51h13.66v94.85h67.35c37.13,0,67.35-30.21,67.35-67.35s-30.21-67.35-67.35-67.35h-81.01v-13.66h81.01c44.67,0,81.01,36.34,81.01,81.01s-36.34,81.01-81.01,81.01Z"/>
  <path class="cls-2" d="M297.8,196.81h-54.19v-13.66h54.19c22.43,0,40.67-18.25,40.67-40.67s-18.25-40.67-40.67-40.67h-94.01v88.18h-13.66v-101.84h107.67c29.96,0,54.34,24.37,54.34,54.34s-24.37,54.34-54.34,54.34Z"/>
</svg>